<?xml version="1.0" encoding="utf-8"?>
<!-- Generator: Adobe Illustrator 22.0.1, SVG Export Plug-In . SVG Version: 6.00 Build 0)  -->
<svg version="1.1" id="Layer_1" xmlns="http://www.w3.org/2000/svg" xmlns:xlink="http://www.w3.org/1999/xlink" x="0px" y="0px"
	 viewBox="0 0 1280 800" style="enable-background:new 0 0 1280 800;" xml:space="preserve">
<style type="text/css">
	.st0{fill-rule:evenodd;clip-rule:evenodd;fill:#1E325A;}
	.st1{fill-rule:evenodd;clip-rule:evenodd;fill:none;}
</style>
<g>
	<path class="st0" d="M765.4,470.5c9.1,47.1-15.6,86.3-36.1,124.3c-22.8,35.3-60.4,65.7-105.6,61.2C522.1,654.4,423,638.9,331,611.1
		c-4.2-1.1-8.4-3.8-10.6-7.6c-1.9-5.3,0.8-10.3,4.6-13.7c84-68,183.9-99.6,282.7-132.6c36.9-10.6,76-22,117.4-16.7
		C742.2,442.8,759.3,454.6,765.4,470.5z M1111.6,269.1c47.1,38.8,89.7,91.6,75.2,155.4c-23.6,94.2-126.2,144.4-207.9,176.3
		c-44.5,14.8-89.3,30-137.9,34.6c-3-0.4-8,0.4-8.7-4.2l1.1-5.3C902.6,548,955,460.6,1001,372.1c21.3-39.9,41-80.9,59.3-121.2
		c2.7-3,5.3-4.6,8.4-5.7C1085.7,246.7,1097.9,260,1111.6,269.1z M448.4,168.8l-1.5,5.7C347,288.1,281.2,420,218.9,551.1
		c-12.2,11.4-23.9-3.8-35-8.7C128.5,505.9,78.3,447,92.7,377c23.2-91.2,117-139.8,195.3-172.9c46.4-17.5,94.6-31.5,145.5-39.5
		C438.9,164.6,445.8,163.9,448.4,168.8z M944.4,187c5.7,3,12.5,4.2,16,9.9c3,6.5-3,10.6-6.5,14.8c-78.7,61.6-168.7,95.8-260.7,125.8
		c-46.7,11.4-93.9,31.9-145.9,20.5c-12.2-3-23.2-11-30-22.8c-12.9-35.7,4.6-73,19.8-104.1c20.1-39.1,55.9-85.1,105.3-85.9
		C748.6,144.5,849,160.4,944.4,187z M1075.8,190.1c80.6,44.1,171.8,121.6,162.3,225c-11,95.8-100.3,162.6-180.1,202.9
		c-233,111.3-560.1,114.8-800.7,17.5c-81.3-33.8-172.5-92-206.7-179.4c-26.2-71.8,5.7-146.7,59.3-196.5
		c112.1-101.8,255-136.8,402.1-156.9c159.6-19.4,327.6-2.3,470.5,46.7C1014.3,161.2,1045.8,174.1,1075.8,190.1z"/>
</g>
<rect y="62" class="st1" width="1280" height="675.9"/>
</svg>
