<?xml version="1.0" encoding="UTF-8"?>
<svg xmlns="http://www.w3.org/2000/svg" version="1.1" viewBox="0 0 1000 1000">
  <defs>
    <style>
      .cls-1 {
        fill: #fff;
      }

      .cls-2 {
        fill: #f34453;
      }
    </style>
  </defs>
  <!-- Generator: Adobe Illustrator 28.7.1, SVG Export Plug-In . SVG Version: 1.2.0 Build 142)  -->
  <g>
    <g id="_Слой_1" data-name="Слой_1">
      <circle class="cls-2" cx="500.11" cy="500.37" r="395.51"/>
      <path class="cls-1" d="M273.77,356.87l46.45,49.26c17.49-24.57,40.2-45.77,67.61-63.94h0c-8.55-8.88-17.71-11.36-28.39-10.62-6.12.42-12.75,1.91-20.03,3.85-13.85,2.53-39.31,11.74-65.63,21.45Z"/>
      <path class="cls-1" d="M485.58,556.96l-17.9-33.85,48.02-25.3c3.19,6.2,2.77,11.6.29,17.25-1.42,3.24-3.51,6.56-5.99,10.17-4.07,7.05-14.03,19.2-24.44,31.74Z"/>
      <path class="cls-2" d="M698.49,222.55c-21.7-32.51-74.14-37.08-126.16-14.29-4.72,2.62-9.38,5.5-13.95,8.69-53.21,37.17-73.97,99.34-46.36,138.85,18.59,26.61,54.37,36.13,92,28.18,10.65-4.62,21.28-10.37,31.64-17.28,60.77-40.57,88.9-105.11,62.83-144.16Z"/>
      <path class="cls-1" d="M573.34,402.16c-.56-7.5-1.69-14.93-3.2-22.12-.97-.17-1.99-.15-3.01.12-3.42.91-7.12,1.66-10.98,2.2-12.85,1.82-24.45.95-31.07-1.86-.59-.25-1.25-.29-1.87-.47-5.52-1.56-10.26-4.31-11.67-9.98-1.74-7.02,2.42-14.1,9.29-15.81,2.54-.63,5.08-.43,7.38.45,3.17,1.16,5.86,3.57,7.35,6.82.38.76.65,1.56.86,2.39.07.29.13.57.18.85.5,2.75,2.46,5.05,5.19,5.66,3.71.84,7.9,1.31,12.32,1.31,3.31,0,6.5-.27,9.45-.76,1.57-.26,2.91-1.04,3.9-2.13-4.48-16.57-10.54-31.25-15.44-41.69-4.76-10.15-8.43-16.31-8.47-16.31-10.1-5.64-99.22-8.16-166.76,38.43-81.3,56.08-119.84,164.44-97.24,274.45-38.41,9.36-72.69,12.59-99.85,4.68,5.83,31.63,33.18,48.78,62.71,41.83,7.61-1.79,15.06-5.13,22.01-9.67-2.95,7.44-4.7,15.1-5.01,22.65-1.25,30.31,20.75,53.93,52.91,53.69-12.83-25.06-16.16-59.13-14.28-98.38-2.62-74.7,167.63-95.14,243.88-155.52,27.02-21.4,33.59-51.65,31.42-80.85Z"/>
      <path class="cls-1" d="M575.89,347.05l-6.13-22.47c-1.13-4.15,1.49-8.39,5.71-9.23l80.36-16.07c11.72-2.34,23.29,4.61,26.73,16.06l26.77,89.22c5.94,19.8-5.09,40.71-24.8,46.98l-40.51,12.89c-2.16.69-3.46,2.89-3.01,5.11l18.12,90.6c.59,2.96-1.21,5.87-4.12,6.67l-7.62,2.09c-2.09.57-3.54,2.47-3.54,4.64v5.74c0,3.81,2.48,7.19,6.12,8.32h0c6.32,1.97,11.1,7.16,12.56,13.62l34.71,153.3c3.46,15.28-7.02,30.21-22.56,32.15h0s-69.38-276.46-69.38-276.46l-3.17.77,58.04,279.31h-6.59c-13.11,0-24.47-9.09-27.34-21.88l-33.47-149.11c-.96-4.28,0-8.77,2.64-12.28h0c4.18-5.57,5.15-12.92,2.56-19.39l-.94-2.36c-1.23-3.07-4.54-4.77-7.75-3.96h0c-4.99,1.25-10.09-1.63-11.6-6.55l-10.65-34.63c-.63-2.05-8.22-33.41-11.24-45.17-.63-2.48.03-5.09,1.75-6.98,4.17-4.59,10.63-12.31,14.86-19.27,7.14-11.74,11.6-24.91,13.36-38.54l2.16-16.71c0-4.23,8.91-4.82,9.66-4.79l45.35-5.34c5.56-.65,9.56-5.64,9.01-11.21l-2.44-24.39c-.09-.94-1.05-1.55-1.94-1.23-20.53,11.2-46.25,22.05-76.97,27.17l-3.75-12.86,76.85-28.68c1.1-.41,1.64-1.65,1.19-2.73h0c-1.11-2.69-3.95-4.23-6.81-3.7l-49.54,9.26c-5.62,1.05-11.1-2.39-12.6-7.9Z"/>
      <path class="cls-1" d="M704.71,221.2c-25.23-36.12-82.14-40.79-132.37-12.93,52.02-22.79,104.45-18.22,126.16,14.29,26.07,39.05-2.06,103.59-62.83,144.16-10.36,6.91-20.99,12.66-31.64,17.28,18.26-3.86,36.95-11.8,54.33-23.94,53.21-37.17,73.97-99.34,46.36-138.85Z"/>
      <path class="cls-2" d="M351.98,485.05c6.43-5.6,15.83-4.77,21.93-1.99,1.44.65,10.48,4.76,11.96,13.96,1.17,7.27-3.15,12.87-3.99,13.96-6.53,8.46-21.22,12.94-29.91,5.98-8.01-6.41-6.18-18.74-5.98-19.94.37-2.29,1.29-7.88,5.98-11.96Z"/>
      <path class="cls-2" d="M350.03,540.97h0c1.09,2.17,3.7,3.1,5.91,2.1l75.15-34c2.46-1.11,3.41-4.13,2.01-6.45l-1.24-2.06c-1.21-2.01-3.75-2.77-5.86-1.74l-73.92,36.06c-2.26,1.1-3.19,3.84-2.06,6.09Z"/>
      <g>
        <path class="cls-2" d="M333.16,460.75l-14.8,11.63c-4.14,3.26-5.22,9.08-2.51,13.6l.76,1.26c.31.52.42,1.13.3,1.72l-3.68,18.39c-.08.41-.06.84.08,1.24l1.24,3.71c.33.99,1.26,1.66,2.3,1.66h4.79c.31,0,.62-.06.91-.18l4.08-1.64c.29-.12.6-.18.91-.18h8c.92,0,1.76-.52,2.17-1.34l.76-1.53c1.69-3.37,2.7-7.04,2.99-10.8,0,0,1.25-8.13,2.53-9.74h0c7-10.49,19.06-11.23,19.06-11.23,0,0,1.22-.26,1.84-.26,6.04-1,14.02,2.99,21.59,9.8l4.13,4.72c.74.84,1.95,1.07,2.94.56l52.48-27.14c1.64-.85,1.77-3.15.23-4.17l-1.66-1.11c-.57-.38-1.27-.5-1.93-.34l-6.93,1.73,25.16-14.37c1.39-.79,1.64-2.69.51-3.82l-.59-.59c-.7-.7-1.75-.9-2.66-.52l-27.41,11.58,7.02-4.88c1.09-.75,1.37-2.24.63-3.34l-1.69-2.53c-.59-.88-1.67-1.28-2.69-.99l-12.25,3.5,3.66-3.66c.21-.21.47-.39.74-.51l28.95-12.67c1.34-.59,1.86-2.22,1.11-3.47l-3.36-5.6c-.67-1.12-2.11-1.51-3.25-.88l-35.88,19.73c-1.1.61-2.49.27-3.19-.78l-1.27-1.91c-.79-1.19-.39-2.8.87-3.48l73.17-39.4c1.22-.66,1.64-2.2.93-3.38l-3.44-5.74c-.68-1.14-2.15-1.52-3.3-.85l-49.04,28.39c-2.57,1.49-5.05-2.06-2.77-3.96h0c1.1-.91,1.17-2.57.16-3.58l-2.94-2.94c-.7-.7-1.76-.91-2.67-.51l-4.5,1.93c-2.69,1.15-4.74-2.55-2.34-4.22l23.91-16.63c1.24-.86,1.4-2.64.33-3.71l-.76-.76c-.71-.71-1.77-.91-2.69-.51-10.73,4.76-74.92,33.35-76.25,37.21-2.97,8.64-15.93,38.5-13.96,33.9,0,1.99-7.26,10.76-10.85,13.58Z"/>
        <path class="cls-2" d="M436.04,399.45c.18.34,9.18-2.58,17.44-7.7,3.6-2.23,4.37-7.08,1.27-9.96h0c-3.59-2.91-8.99,2.66-8.67,2.59,0,0-13.73,13.72-10.05,15.07Z"/>
      </g>
    </g>
  </g>
</svg>